v -19.0000 -15.0000 0.0000
v -1.0000 -15.0000 0.0000
v -1.0000 15.0000 0.0000
v -19.0000 15.0000 0.0000
v -19.0000 -15.0000 3.2000
v -1.0000 -15.0000 3.2000
v -1.0000 15.0000 3.2000
v -19.0000 15.0000 3.2000
v 26.0000 -15.0000 0.0000
v 44.0000 -15.0000 0.0000
v 44.0000 15.0000 0.0000
v 26.0000 15.0000 0.0000
v 26.0000 -15.0000 3.2000
v 44.0000 -15.0000 3.2000
v 44.0000 15.0000 3.2000
v 26.0000 15.0000 3.2000
v 71.0000 -15.0000 0.0000
v 89.0000 -15.0000 0.0000
v 89.0000 15.0000 0.0000
v 71.0000 15.0000 0.0000
v 71.0000 -15.0000 3.2000
v 89.0000 -15.0000 3.2000
v 89.0000 15.0000 3.2000
v 71.0000 15.0000 3.2000
f 1 2 3 4
f 5 6 7 8
f 1 4 8 5
f 2 1 5 6
f 3 2 6 7
f 4 3 7 8
f 9 10 11 12
f 13 14 15 16
f 9 12 16 13
f 10 9 13 14
f 11 10 14 15
f 12 11 15 16
f 17 18 19 20
f 21 22 23 24
f 17 20 24 21
f 18 17 21 22
f 19 18 22 23
f 20 19 23 24
